<svg xmlns="http://www.w3.org/2000/svg" width="18" height="14" fill="none" viewBox="0 0 18 14" class="icon_twitter">
  <path fill="#fff" d="M15.331 3.511c.01.146.01.293.01.44a9.623 9.623 0 0 1-9.69 9.69 9.641 9.641 0 0 1-5.22-1.529 6.838 6.838 0 0 0 5.04-1.412 3.41 3.41 0 0 1-3.182-2.365 3.4 3.4 0 0 0 1.542-.059 3.406 3.406 0 0 1-2.736-3.338v-.043c.474.264 1.004.41 1.546.426A3.41 3.41 0 0 1 1.587.774a9.666 9.666 0 0 0 7.019 3.558 3.409 3.409 0 0 1 5.8-3.106 6.834 6.834 0 0 0 2.166-.827 3.418 3.418 0 0 1-1.5 1.884 6.777 6.777 0 0 0 1.959-.536 6.917 6.917 0 0 1-1.7 1.764Z"/>
</svg>
