<svg xmlns="http://www.w3.org/2000/svg" width="22" height="22" fill="none" viewBox="0 0 22 22" class="icon_reload">
  <path fill="#1A1A1A" d="M10.57-.001a10.57 10.57 0 1 0 .002 21.14A10.57 10.57 0 0 0 10.57 0Zm2.183 15.572-3.6 1.9.078-1.483A5.578 5.578 0 0 1 5.45 8.356l.059-.136 1.32.573-.059.136a4.14 4.14 0 0 0 2.539 5.588l.061-1.159 3.752 2.02-.369.193Zm2.933-2.783-.059.136-1.32-.573.059-.136a4.141 4.141 0 0 0-2.539-5.588l-.061 1.159-3.755-2.02.38-.2.708-.375 2.884-1.52-.077 1.481a5.579 5.579 0 0 1 3.781 7.634l-.001.002Z"/>
</svg>
