<svg xmlns="http://www.w3.org/2000/svg" width="18" height="18" fill="none" viewBox="0 0 18 18" class="icon_instagram">
  <path fill="#fff" d="M8.847.685c-2.263 0-2.547.01-3.433.05a6.115 6.115 0 0 0-2.026.387 4.085 4.085 0 0 0-1.474.963 4.084 4.084 0 0 0-.963 1.474 6.116 6.116 0 0 0-.387 2.026c-.04.886-.05 1.17-.05 3.433s.01 2.547.05 3.436c.014.691.145 1.375.387 2.023.21.556.539 1.06.963 1.476.416.424.92.752 1.476.961a6.114 6.114 0 0 0 2.023.387c.889.041 1.173.05 3.436.05s2.547-.01 3.436-.05a6.114 6.114 0 0 0 2.023-.387 4.26 4.26 0 0 0 2.437-2.437 6.114 6.114 0 0 0 .387-2.023c.041-.889.05-1.173.05-3.436s-.01-2.547-.05-3.436a6.114 6.114 0 0 0-.387-2.023 4.08 4.08 0 0 0-.964-1.474 4.082 4.082 0 0 0-1.476-.963 6.113 6.113 0 0 0-2.022-.387c-.889-.04-1.169-.05-3.436-.05Zm0 1.5c2.225 0 2.488.009 3.367.049a4.61 4.61 0 0 1 1.547.287c.362.133.69.346.958.623.277.269.49.596.623.958.184.495.28 1.019.287 1.547.04.879.049 1.142.049 3.367s-.009 2.489-.049 3.367a4.605 4.605 0 0 1-.287 1.547 2.758 2.758 0 0 1-1.581 1.581 4.61 4.61 0 0 1-1.547.287c-.879.04-1.142.049-3.367.049s-2.489-.009-3.367-.049a4.61 4.61 0 0 1-1.547-.287 2.578 2.578 0 0 1-.958-.623 2.58 2.58 0 0 1-.623-.958 4.61 4.61 0 0 1-.288-1.545c-.04-.879-.049-1.142-.049-3.367s.009-2.489.049-3.367a4.61 4.61 0 0 1 .287-1.547 2.58 2.58 0 0 1 .623-.959c.269-.277.596-.49.958-.623a4.608 4.608 0 0 1 1.548-.287c.878-.04 1.142-.05 3.367-.05Zm0 9.609a2.778 2.778 0 1 1 0-5.555 2.778 2.778 0 0 1 0 5.555Zm0-7.057a4.279 4.279 0 1 0 0 8.554 4.279 4.279 0 0 0 0-8.552m5.448-.169a1 1 0 1 1-2 0 1 1 0 0 1 2 0Z"/>
</svg>
